<svg xmlns="http://www.w3.org/2000/svg" viewBox="0 0 800 600">
  <!-- Background -->
  <rect width="800" height="600" fill="#f5f7fa"/>
  
  <!-- Header -->
  <rect width="800" height="60" fill="#2c3e50"/>
  <text x="30" y="38" font-family="Arial" font-size="24" fill="#ffffff" font-weight="bold">FeedForward</text>
  <text x="180" y="38" font-family="Arial" font-size="14" fill="#ffffff">Instructor Portal</text>
  
  <!-- Navigation -->
  <rect x="400" y="18" width="370" height="30" rx="15" fill="#34495e"/>
  <text x="430" y="38" font-family="Arial" font-size="14" fill="#ffffff">Courses</text>
  <text x="520" y="38" font-family="Arial" font-size="14" fill="#ffffff">Assignments</text>
  <rect x="590" y="15" width="100" height="35" rx="17" fill="#3498db" opacity="0.3"/>
  <text x="610" y="38" font-family="Arial" font-size="14" fill="#ffffff" font-weight="bold">Analytics</text>
  <text x="690" y="38" font-family="Arial" font-size="14" fill="#ffffff">Settings</text>
  
  <!-- Page Title -->
  <text x="50" y="100" font-family="Arial" font-size="22" fill="#2c3e50" font-weight="bold">Analytics Dashboard</text>
  <text x="50" y="125" font-family="Arial" font-size="14" fill="#7f8c8d">Overview of all courses and assignments</text>
  
  <!-- Date Range Filter -->
  <rect x="600" y="95" width="170" height="30" rx="5" fill="#ffffff" stroke="#bdc3c7" stroke-width="1"/>
  <text x="620" y="115" font-family="Arial" font-size="13" fill="#2c3e50">Spring 2025 ▼</text>
  
  <!-- Summary Metrics -->
  <rect x="50" y="145" width="230" height="120" rx="5" fill="#ffffff" stroke="#e1e8ed" stroke-width="1"/>
  <text x="70" y="175" font-family="Arial" font-size="16" fill="#2c3e50" font-weight="bold">Total Activity</text>
  <text x="70" y="215" font-family="Arial" font-size="28" fill="#3498db" font-weight="bold">4,217</text>
  <text x="70" y="240" font-family="Arial" font-size="14" fill="#7f8c8d">Draft Submissions</text>
  
  <rect x="290" y="145" width="230" height="120" rx="5" fill="#ffffff" stroke="#e1e8ed" stroke-width="1"/>
  <text x="310" y="175" font-family="Arial" font-size="16" fill="#2c3e50" font-weight="bold">Average Drafts</text>
  <text x="310" y="215" font-family="Arial" font-size="28" fill="#2ecc71" font-weight="bold">2.7</text>
  <text x="310" y="240" font-family="Arial" font-size="14" fill="#7f8c8d">Per Assignment</text>
  
  <rect x="530" y="145" width="230" height="120" rx="5" fill="#ffffff" stroke="#e1e8ed" stroke-width="1"/>
  <text x="550" y="175" font-family="Arial" font-size="16" fill="#2c3e50" font-weight="bold">Average Improvement</text>
  <text x="550" y="215" font-family="Arial" font-size="28" fill="#e74c3c" font-weight="bold">16.4%</text>
  <text x="550" y="240" font-family="Arial" font-size="14" fill="#7f8c8d">From First to Last Draft</text>
  
  <!-- Course Comparison -->
  <rect x="50" y="280" width="470" height="300" rx="5" fill="#ffffff" stroke="#e1e8ed" stroke-width="1"/>
  <text x="70" y="310" font-family="Arial" font-size="16" fill="#2c3e50" font-weight="bold">Course Comparison</text>
  
  <!-- Course Bar Chart -->
  <line x1="100" y1="520" x2="450" y2="520" stroke="#ecf0f1" stroke-width="1"/>
  <line x1="100" y1="520" x2="100" y2="340" stroke="#ecf0f1" stroke-width="1"/>
  
  <!-- Bars -->
  <rect x="130" y="390" width="40" height="130" fill="#3498db"/>
  <rect x="180" y="420" width="40" height="100" fill="#3498db"/>
  <rect x="230" y="370" width="40" height="150" fill="#3498db"/>
  <rect x="280" y="400" width="40" height="120" fill="#3498db"/>
  <rect x="330" y="350" width="40" height="170" fill="#3498db"/>
  <rect x="380" y="410" width="40" height="110" fill="#3498db"/>
  
  <!-- Labels -->
  <text x="150" y="540" font-family="Arial" font-size="12" fill="#7f8c8d" text-anchor="middle">ENG301</text>
  <text x="200" y="540" font-family="Arial" font-size="12" fill="#7f8c8d" text-anchor="middle">CS312</text>
  <text x="250" y="540" font-family="Arial" font-size="12" fill="#7f8c8d" text-anchor="middle">RES405</text>
  <text x="300" y="540" font-family="Arial" font-size="12" fill="#7f8c8d" text-anchor="middle">BUS340</text>
  <text x="350" y="540" font-family="Arial" font-size="12" fill="#7f8c8d" text-anchor="middle">SOC221</text>
  <text x="400" y="540" font-family="Arial" font-size="12" fill="#7f8c8d" text-anchor="middle">PHY110</text>
  
  <!-- Y-Axis Labels -->
  <text x="85" y="520" font-family="Arial" font-size="10" fill="#95a5a6" text-anchor="end">0%</text>
  <text x="85" y="470" font-family="Arial" font-size="10" fill="#95a5a6" text-anchor="end">10%</text>
  <text x="85" y="420" font-family="Arial" font-size="10" fill="#95a5a6" text-anchor="end">20%</text>
  <text x="85" y="370" font-family="Arial" font-size="10" fill="#95a5a6" text-anchor="end">30%</text>
  <text x="85" y="340" font-family="Arial" font-size="10" fill="#95a5a6" text-anchor="end">35%</text>
  
  <!-- AI Model Performance -->
  <rect x="530" y="280" width="230" height="300" rx="5" fill="#ffffff" stroke="#e1e8ed" stroke-width="1"/>
  <text x="550" y="310" font-family="Arial" font-size="16" fill="#2c3e50" font-weight="bold">AI Model Performance</text>
  
  <!-- Model Performance Metrics -->
  <rect x="550" y="330" width="190" height="50" rx="3" fill="#f8f9fa"/>
  <text x="570" y="355" font-family="Arial" font-size="14" fill="#2c3e50">ChatGPT (OpenAI)</text>
  <text x="570" y="375" font-family="Arial" font-size="12" fill="#7f8c8d">Used in 85% of assignments</text>
  <rect x="690" y="345" width="30" height="30" rx="15" fill="#e8f6ef"/>
  <text x="705" y="365" font-family="Arial" font-size="14" fill="#2ecc71" text-anchor="middle" font-weight="bold">A</text>
  
  <rect x="550" y="390" width="190" height="50" rx="3" fill="#f8f9fa"/>
  <text x="570" y="415" font-family="Arial" font-size="14" fill="#2c3e50">Claude (Anthropic)</text>
  <text x="570" y="435" font-family="Arial" font-size="12" fill="#7f8c8d">Used in 72% of assignments</text>
  <rect x="690" y="405" width="30" height="30" rx="15" fill="#e8f6ef"/>
  <text x="705" y="425" font-family="Arial" font-size="14" fill="#2ecc71" text-anchor="middle" font-weight="bold">A</text>
  
  <rect x="550" y="450" width="190" height="50" rx="3" fill="#f8f9fa"/>
  <text x="570" y="475" font-family="Arial" font-size="14" fill="#2c3e50">Llama 3 (Meta)</text>
  <text x="570" y="495" font-family="Arial" font-size="12" fill="#7f8c8d">Used in 64% of assignments</text>
  <rect x="690" y="465" width="30" height="30" rx="15" fill="#e1f0fa"/>
  <text x="705" y="485" font-family="Arial" font-size="14" fill="#3498db" text-anchor="middle" font-weight="bold">B</text>
  
  <rect x="550" y="510" width="190" height="50" rx="3" fill="#f8f9fa"/>
  <text x="570" y="535" font-family="Arial" font-size="14" fill="#2c3e50">Mistral AI</text>
  <text x="570" y="555" font-family="Arial" font-size="12" fill="#7f8c8d">Used in 38% of assignments</text>
  <rect x="690" y="525" width="30" height="30" rx="15" fill="#fcefdc"/>
  <text x="705" y="545" font-family="Arial" font-size="14" fill="#f39c12" text-anchor="middle" font-weight="bold">C</text>
</svg>
