<svg xmlns="http://www.w3.org/2000/svg" viewBox="0 0 800 600">
  <!-- Background -->
  <rect width="800" height="600" fill="#f5f7fa"/>
  
  <!-- Header -->
  <rect width="800" height="60" fill="#2c3e50"/>
  <text x="30" y="38" font-family="Arial" font-size="24" fill="#ffffff" font-weight="bold">FeedForward</text>
  
  <!-- Navigation -->
  <rect x="250" y="18" width="450" height="30" rx="15" fill="#34495e"/>
  <text x="270" y="38" font-family="Arial" font-size="14" fill="#ffffff">Dashboard</text>
  <text x="370" y="38" font-family="Arial" font-size="14" fill="#ffffff" font-weight="bold">My Submissions</text>
  <rect x="365" y="15" width="120" height="35" rx="17" fill="#3498db" opacity="0.3"/>
  <text x="490" y="38" font-family="Arial" font-size="14" fill="#ffffff">Feedback History</text>
  <text x="620" y="38" font-family="Arial" font-size="14" fill="#ffffff">Help</text>
  
  <!-- Main Content Area -->
  <rect x="30" y="80" width="740" height="500" rx="5" fill="#ffffff" stroke="#e1e8ed" stroke-width="1"/>
  
  <!-- Page Title -->
  <text x="50" y="110" font-family="Arial" font-size="20" fill="#2c3e50" font-weight="bold">My Submissions</text>
  
  <!-- Filter Controls -->
  <rect x="50" y="125" width="720" height="50" rx="5" fill="#f8f9fa" stroke="#e1e8ed" stroke-width="1"/>
  
  <!-- Filter Labels -->
  <text x="70" y="155" font-family="Arial" font-size="14" fill="#7f8c8d">Filter by:</text>
  
  <!-- Course Dropdown -->
  <rect x="150" y="135" width="150" height="30" rx="3" fill="#ffffff" stroke="#bdc3c7" stroke-width="1"/>
  <text x="165" y="155" font-family="Arial" font-size="13" fill="#2c3e50">All Courses ▼</text>
  
  <!-- Term Dropdown -->
  <rect x="320" y="135" width="150" height="30" rx="3" fill="#ffffff" stroke="#bdc3c7" stroke-width="1"/>
  <text x="335" y="155" font-family="Arial" font-size="13" fill="#2c3e50">Spring 2025 ▼</text>
  
  <!-- Status Dropdown -->
  <rect x="490" y="135" width="150" height="30" rx="3" fill="#ffffff" stroke="#bdc3c7" stroke-width="1"/>
  <text x="505" y="155" font-family="Arial" font-size="13" fill="#2c3e50">All Statuses ▼</text>
  
  <!-- Search Box -->
  <rect x="660" y="135" width="90" height="30" rx="3" fill="#3498db"/>
  <text x="678" y="155" font-family="Arial" font-size="13" fill="#ffffff">Search</text>
  
  <!-- Table Headers -->
  <rect x="50" y="190" width="720" height="40" rx="3" fill="#ecf0f1"/>
  <text x="70" y="215" font-family="Arial" font-size="14" fill="#2c3e50" font-weight="bold">Assignment</text>
  <text x="280" y="215" font-family="Arial" font-size="14" fill="#2c3e50" font-weight="bold">Course</text>
  <text x="420" y="215" font-family="Arial" font-size="14" fill="#2c3e50" font-weight="bold">Drafts</text>
  <text x="500" y="215" font-family="Arial" font-size="14" fill="#2c3e50" font-weight="bold">Status</text>
  <text x="600" y="215" font-family="Arial" font-size="14" fill="#2c3e50" font-weight="bold">Due Date</text>
  <text x="690" y="215" font-family="Arial" font-size="14" fill="#2c3e50" font-weight="bold">Actions</text>
  
  <!-- Table Row 1 -->
  <rect x="50" y="230" width="720" height="60" rx="0" fill="#ffffff" stroke="#e1e8ed" stroke-width="1"/>
  <text x="70" y="255" font-family="Arial" font-size="14" fill="#2c3e50" font-weight="bold">Research Essay</text>
  <text x="70" y="275" font-family="Arial" font-size="12" fill="#7f8c8d">Critical perspectives in modern literature</text>
  <text x="280" y="265" font-family="Arial" font-size="14" fill="#2c3e50">ENG301</text>
  
  <!-- Draft Indicators -->
  <circle cx="420" cy="260" r="10" fill="#3498db"/>
  <text x="420" y="265" font-family="Arial" font-size="12" fill="#ffffff" text-anchor="middle">2</text>
  
  <!-- Status Badge -->
  <rect x="500" y="250" width="80" height="25" rx="12" fill="#f1c40f" opacity="0.2"/>
  <text x="540" y="267" font-family="Arial" font-size="12" fill="#f39c12" text-anchor="middle" font-weight="bold">In Progress</text>
  
  <!-- Due Date -->
  <text x="600" y="265" font-family="Arial" font-size="14" fill="#2c3e50">Apr 15, 2025</text>
  
  <!-- Actions -->
  <rect x="690" y="250" width="60" height="25" rx="3" fill="#3498db"/>
  <text x="720" y="267" font-family="Arial" font-size="12" fill="#ffffff" text-anchor="middle">View</text>
  
  <!-- Table Row 2 -->
  <rect x="50" y="290" width="720" height="60" rx="0" fill="#ffffff" stroke="#e1e8ed" stroke-width="1"/>
  <text x="70" y="315" font-family="Arial" font-size="14" fill="#2c3e50" font-weight="bold">Literature Review</text>
  <text x="70" y="335" font-family="Arial" font-size="12" fill="#7f8c8d">Contemporary research methods</text>
  <text x="280" y="325" font-family="Arial" font-size="14" fill="#2c3e50">RES405</text>
  
  <!-- Draft Indicators -->
  <circle cx="420" cy="320" r="10" fill="#e74c3c"/>
  <text x="420" y="325" font-family="Arial" font-size="12" fill="#ffffff" text-anchor="middle">1</text>
  
  <!-- Status Badge -->
  <rect x="500" y="310" width="80" height="25" rx="12" fill="#f1c40f" opacity="0.2"/>
  <text x="540" y="327" font-family="Arial" font-size="12" fill="#f39c12" text-anchor="middle" font-weight="bold">In Progress</text>
  
  <!-- Due Date -->
  <text x="600" y="325" font-family="Arial" font-size="14" fill="#2c3e50">May 2, 2025</text>
  
  <!-- Actions -->
  <rect x="690" y="310" width="60" height="25" rx="3" fill="#3498db"/>
  <text x="720" y="327" font-family="Arial" font-size="12" fill="#ffffff" text-anchor="middle">View</text>
  
  <!-- Table Row 3 -->
  <rect x="50" y="350" width="720" height="60" rx="0" fill="#ffffff" stroke="#e1e8ed" stroke-width="1"/>
  <text x="70" y="375" font-family="Arial" font-size="14" fill="#2c3e50" font-weight="bold">Code Assignment</text>
  <text x="70" y="395" font-family="Arial" font-size="12" fill="#7f8c8d">Advanced data structures implementation</text>
  <text x="280" y="385" font-family="Arial" font-size="14" fill="#2c3e50">CS312</text>
  
  <!-- Draft Indicators -->
  <circle cx="420" cy="380" r="10" fill="#2ecc71"/>
  <text x="420" y="385" font-family="Arial" font-size="12" fill="#ffffff" text-anchor="middle">3</text>
  
  <!-- Status Badge -->
  <rect x="500" y="370" width="80" height="25" rx="12" fill="#f1c40f" opacity="0.2"/>
  <text x="540" y="387" font-family="Arial" font-size="12" fill="#f39c12" text-anchor="middle" font-weight="bold">In Progress</text>
  
  <!-- Due Date -->
  <text x="600" y="385" font-family="Arial" font-size="14" fill="#2c3e50">Apr 28, 2025</text>
  
  <!-- Actions -->
  <rect x="690" y="370" width="60" height="25" rx="3" fill="#3498db"/>
  <text x="720" y="387" font-family="Arial" font-size="12" fill="#ffffff" text-anchor="middle">View</text>
  
  <!-- Table Row 4 -->
  <rect x="50" y="410" width="720" height="60" rx="0" fill="#ffffff" stroke="#e1e8ed" stroke-width="1"/>
  <text x="70" y="435" font-family="Arial" font-size="14" fill="#2c3e50" font-weight="bold">Project Proposal</text>
  <text x="70" y="455" font-family="Arial" font-size="12" fill="#7f8c8d">Research methods in social sciences</text>
  <text x="280" y="445" font-family="Arial" font-size="14" fill="#2c3e50">SOC221</text>
  
  <!-- Draft Indicators -->
  <circle cx="420" cy="440" r="10" fill="#9b59b6"/>
  <text x="420" y="445" font-family="Arial" font-size="12" fill="#ffffff" text-anchor="middle">4</text>
  
  <!-- Status Badge -->
  <rect x="500" y="430" width="80" height="25" rx="12" fill="#2ecc71" opacity="0.2"/>
  <text x="540" y="447" font-family="Arial" font-size="12" fill="#27ae60" text-anchor="middle" font-weight="bold">Completed</text>
  
  <!-- Due Date -->
  <text x="600" y="445" font-family="Arial" font-size="14" fill="#2c3e50">Mar 20, 2025</text>
  
  <!-- Actions -->
  <rect x="690" y="430" width="60" height="25" rx="3" fill="#3498db"/>
  <text x="720" y="447" font-family="Arial" font-size="12" fill="#ffffff" text-anchor="middle">View</text>
  
  <!-- Table Row 5 -->
  <rect x="50" y="470" width="720" height="60" rx="0" fill="#ffffff" stroke="#e1e8ed" stroke-width="1"/>
  <text x="70" y="495" font-family="Arial" font-size="14" fill="#2c3e50" font-weight="bold">Case Study Analysis</text>
  <text x="70" y="515" font-family="Arial" font-size="12" fill="#7f8c8d">Business management strategies</text>
  <text x="280" y="505" font-family="Arial" font-size="14" fill="#2c3e50">BUS340</text>
  
  <!-- Draft Indicators -->
  <circle cx="420" cy="500" r="10" fill="#95a5a6"/>
  <text x="420" y="505" font-family="Arial" font-size="12" fill="#ffffff" text-anchor="middle">2</text>
  
  <!-- Status Badge -->
  <rect x="500" y="490" width="80" height="25" rx="12" fill="#bdc3c7" opacity="0.3"/>
  <text x="540" y="507" font-family="Arial" font-size="12" fill="#7f8c8d" text-anchor="middle" font-weight="bold">Graded</text>
  
  <!-- Due Date -->
  <text x="600" y="505" font-family="Arial" font-size="14" fill="#2c3e50">Feb 28, 2025</text>
  
  <!-- Actions -->
  <rect x="690" y="490" width="60" height="25" rx="3" fill="#3498db"/>
  <text x="720" y="507" font-family="Arial" font-size="12" fill="#ffffff" text-anchor="middle">View</text>
  
  <!-- Pagination -->
  <rect x="300" y="545" width="200" height="25" fill="none"/>
  <text x="400" y="560" font-family="Arial" font-size="14" fill="#7f8c8d" text-anchor="middle">Page 1 of 3 ></text>
</svg>
