<?xml version="1.0" encoding="UTF-8" standalone="no"?>
<svg width="800" height="700" xmlns="http://www.w3.org/2000/svg">
  <!-- Styles -->
  <style>
    .component { 
      fill: #f8fafc; 
      stroke: #3730a3; 
      stroke-width: 2px; 
    }
    .instructor { fill: #e0e7ff; stroke: #4f46e5; }
    .course { fill: #e0f2fe; stroke: #0284c7; }
    .assignment { fill: #ecfdf5; stroke: #0d9488; }
    .submission { fill: #f0fdf4; stroke: #16a34a; }
    .feedback { fill: #fef3c7; stroke: #d97706; }
    .aggregated { fill: #fdf2f8; stroke: #db2777; }
    
    .status-flow { fill: #f1f5f9; stroke: #94a3b8; }
    .status-active { fill: #dcfce7; }
    .status-closed { fill: #fef3c7; }
    .status-archived { fill: #e0f2fe; }
    .status-deleted { fill: #fee2e2; }
    
    .component-title { 
      font-family: 'Arial', sans-serif; 
      font-size: 16px; 
      font-weight: bold;
      text-anchor: middle; 
    }
    .status-title {
      font-family: 'Arial', sans-serif; 
      font-size: 12px; 
      font-weight: bold;
      text-anchor: middle; 
    }
    .role-title {
      font-family: 'Arial', sans-serif; 
      font-size: 14px; 
      font-weight: bold;
      text-anchor: middle; 
    }
    .component-detail { 
      font-family: 'Arial', sans-serif; 
      font-size: 11px; 
      text-anchor: start; 
    }
    .arrow {
      stroke: #475569;
      stroke-width: 2px;
      fill: none;
    }
    .arrow-head {
      fill: #475569;
    }
    .section-title {
      font-family: 'Arial', sans-serif;
      font-size: 18px;
      font-weight: bold;
      text-anchor: start;
      fill: #0f172a;
    }
  </style>

  <!-- Title -->
  <text x="40" y="30" class="section-title">FeedForward Educational Workflow Architecture (ADR-007)</text>
  
  <!-- Component Hierarchy -->
  <text x="40" y="70" class="section-title">Component Hierarchy</text>
  
  <!-- Instructor -->
  <rect x="200" y="90" width="120" height="60" rx="8" class="component instructor" />
  <text x="260" y="120" class="component-title">Instructor</text>
  <text x="260" y="135" class="component-detail" text-anchor="middle">Creates & manages</text>
  
  <!-- Course -->
  <rect x="200" y="190" width="120" height="60" rx="8" class="component course" />
  <text x="260" y="220" class="component-title">Course</text>
  <text x="260" y="235" class="component-detail" text-anchor="middle">Contains</text>
  
  <!-- Assignment -->
  <rect x="200" y="290" width="120" height="60" rx="8" class="component assignment" />
  <text x="260" y="320" class="component-title">Assignment</text>
  <text x="260" y="335" class="component-detail" text-anchor="middle">Receives</text>
  
  <!-- Submission -->
  <rect x="200" y="390" width="120" height="60" rx="8" class="component submission" />
  <text x="260" y="420" class="component-title">Submission</text>
  <text x="260" y="435" class="component-detail" text-anchor="middle">Generates</text>
  
  <!-- Feedback -->
  <rect x="200" y="490" width="120" height="60" rx="8" class="component feedback" />
  <text x="260" y="520" class="component-title">Feedback</text>
  <text x="260" y="535" class="component-detail" text-anchor="middle">Combines into</text>
  
  <!-- Aggregated Feedback -->
  <rect x="200" y="590" width="120" height="60" rx="8" class="component aggregated" />
  <text x="260" y="620" class="component-title">Aggregated</text>
  <text x="260" y="635" class="component-detail" text-anchor="middle">Feedback</text>
  
  <!-- Connect the components with arrows -->
  <line x1="260" y1="150" x2="260" y2="190" class="arrow" />
  <polygon points="260,190 255,180 265,180" class="arrow-head" />
  
  <line x1="260" y1="250" x2="260" y2="290" class="arrow" />
  <polygon points="260,290 255,280 265,280" class="arrow-head" />
  
  <line x1="260" y1="350" x2="260" y2="390" class="arrow" />
  <polygon points="260,390 255,380 265,380" class="arrow-head" />
  
  <line x1="260" y1="450" x2="260" y2="490" class="arrow" />
  <polygon points="260,450 255,440 265,440" class="arrow-head" />
  
  <line x1="260" y1="550" x2="260" y2="590" class="arrow" />
  <polygon points="260,590 255,580 265,580" class="arrow-head" />

  <!-- Component Status Flows -->
  <text x="400" y="70" class="section-title">Status Lifecycle Flows</text>
  
  <!-- Course Status Flow -->
  <rect x="400" y="90" width="360" height="100" rx="8" class="status-flow" />
  <text x="580" y="110" class="status-title">Course Status Flow</text>
  
  <rect x="420" y="130" width="70" height="40" rx="5" class="status-active" />
  <text x="455" y="155" class="status-title" style="font-size: 11px;">Active</text>
  
  <rect x="500" y="130" width="70" height="40" rx="5" class="status-closed" />
  <text x="535" y="155" class="status-title" style="font-size: 11px;">Closed</text>
  
  <rect x="580" y="130" width="70" height="40" rx="5" class="status-archived" />
  <text x="615" y="155" class="status-title" style="font-size: 11px;">Archived</text>
  
  <rect x="660" y="130" width="70" height="40" rx="5" class="status-deleted" />
  <text x="695" y="155" class="status-title" style="font-size: 11px;">Deleted</text>
  
  <!-- Connecting arrows -->
  <line x1="490" y1="150" x2="500" y2="150" class="arrow" />
  <polygon points="500,150 490,145 490,155" class="arrow-head" />
  
  <line x1="570" y1="150" x2="580" y2="150" class="arrow" />
  <polygon points="580,150 570,145 570,155" class="arrow-head" />
  
  <line x1="650" y1="150" x2="660" y2="150" class="arrow" />
  <polygon points="660,150 650,145 650,155" class="arrow-head" />
  
  <!-- Assignment Status Flow -->
  <rect x="400" y="200" width="360" height="100" rx="8" class="status-flow" />
  <text x="580" y="220" class="status-title">Assignment Status Flow</text>
  
  <rect x="410" y="240" width="60" height="40" rx="5" class="status-active" style="fill: #f0fdf4;" />
  <text x="440" y="265" class="status-title" style="font-size: 10px;">Draft</text>
  
  <rect x="480" y="240" width="60" height="40" rx="5" class="status-active" />
  <text x="510" y="265" class="status-title" style="font-size: 10px;">Active</text>
  
  <rect x="550" y="240" width="60" height="40" rx="5" class="status-closed" />
  <text x="580" y="265" class="status-title" style="font-size: 10px;">Closed</text>
  
  <rect x="620" y="240" width="60" height="40" rx="5" class="status-archived" />
  <text x="650" y="265" class="status-title" style="font-size: 10px;">Archived</text>
  
  <rect x="690" y="240" width="60" height="40" rx="5" class="status-deleted" />
  <text x="720" y="265" class="status-title" style="font-size: 10px;">Deleted</text>
  
  <!-- Connecting arrows -->
  <line x1="470" y1="260" x2="480" y2="260" class="arrow" />
  <polygon points="480,260 470,255 470,265" class="arrow-head" />
  
  <line x1="540" y1="260" x2="550" y2="260" class="arrow" />
  <polygon points="550,260 540,255 540,265" class="arrow-head" />
  
  <line x1="610" y1="260" x2="620" y2="260" class="arrow" />
  <polygon points="620,260 610,255 610,265" class="arrow-head" />
  
  <line x1="680" y1="260" x2="690" y2="260" class="arrow" />
  <polygon points="690,260 680,255 680,265" class="arrow-head" />
  
  <!-- Role-Based Permissions -->
  <text x="400" y="320" class="section-title">Role-Based Permissions</text>
  
  <!-- Admin -->
  <rect x="400" y="340" width="110" height="140" rx="8" class="component" style="fill: #e0f2fe;" />
  <text x="455" y="360" class="role-title">Admin</text>
  <text x="410" y="380" class="component-detail">• Manage all content</text>
  <text x="410" y="400" class="component-detail">• Transfer ownership</text>
  <text x="410" y="420" class="component-detail">• System config</text>
  <text x="410" y="440" class="component-detail">• User management</text>
  <text x="410" y="460" class="component-detail">• View all data</text>
  
  <!-- Instructor -->
  <rect x="525" y="340" width="110" height="140" rx="8" class="component" style="fill: #e0e7ff;" />
  <text x="580" y="360" class="role-title">Instructor</text>
  <text x="535" y="380" class="component-detail">• Create courses</text>
  <text x="535" y="400" class="component-detail">• Manage assignments</text>
  <text x="535" y="420" class="component-detail">• Enroll students</text>
  <text x="535" y="440" class="component-detail">• Review feedback</text>
  <text x="535" y="460" class="component-detail">• Configure AI models</text>
  
  <!-- Student -->
  <rect x="650" y="340" width="110" height="140" rx="8" class="component" style="fill: #f0fdf4;" />
  <text x="705" y="360" class="role-title">Student</text>
  <text x="660" y="380" class="component-detail">• View enrolled courses</text>
  <text x="660" y="400" class="component-detail">• View assignments</text>
  <text x="660" y="420" class="component-detail">• Submit drafts</text>
  <text x="660" y="440" class="component-detail">• Receive feedback</text>
  <text x="660" y="460" class="component-detail">• Track progress</text>
  
  <!-- Cascade Rules  -->
  <text x="400" y="510" class="section-title">Status Cascade Rules</text>
  <rect x="400" y="530" width="360" height="120" rx="8" class="status-flow" />
  
  <text x="410" y="550" class="component-detail" style="font-weight: bold;">When a Course is closed:</text>
  <text x="420" y="570" class="component-detail">• No new assignments can be added</text>
  <text x="420" y="590" class="component-detail">• Existing assignments remain accessible</text>
  
  <text x="410" y="610" class="component-detail" style="font-weight: bold;">When a Course is archived:</text>
  <text x="420" y="630" class="component-detail">• All assignments are automatically archived</text>
  
  <!-- Implementation Progress -->
  <rect x="400" y="660" width="360" height="30" rx="8" class="component" style="fill: #e0f2fe;" />
  <text x="580" y="680" class="status-title">Course Management: Implemented ✓</text>
</svg>